<svg width="35" height="23" viewBox="0 0 35 23" fill="none" xmlns="http://www.w3.org/2000/svg">
<g filter="url(#filter0_d)">
<path d="M20.138 11.51C21.094 11.201 22.318 13.55 23.621 14.449C24.599 15.13 25.348 14.983 25.348 14.983L28.821 14.933C28.821 14.933 30.636 14.821 29.778 13.379C29.707 13.259 29.275 12.31 27.193 10.357C25.016 8.31404 25.311 8.64504 27.932 5.11304C29.529 2.96004 30.168 1.64504 29.968 1.08504C29.776 0.546037 28.603 0.686037 28.603 0.686037L24.69 0.713037C24.309 0.714037 23.986 0.832037 23.839 1.22804C23.836 1.23204 23.218 2.89404 22.394 4.30704C20.653 7.29604 19.958 7.45504 19.67 7.26804C19.009 6.83504 19.176 5.53104 19.176 4.60404C19.176 1.70704 19.608 0.499037 18.33 0.187037C17.903 0.0830374 17.591 0.0150374 16.502 0.00503741C15.11 -0.0159626 13.928 0.00503743 13.258 0.334037C12.813 0.557037 12.472 1.04604 12.679 1.07404C12.939 1.10904 13.522 1.23404 13.834 1.66004C14.235 2.21204 14.223 3.44904 14.223 3.44904C14.223 3.44904 14.452 6.86004 13.683 7.28304C13.155 7.57304 12.433 6.98104 10.88 4.26704C10.087 2.87904 9.48797 1.34504 9.48797 1.34504C9.48797 1.34504 9.37197 1.06004 9.16197 0.904037C8.91197 0.719037 8.56197 0.660037 8.56197 0.660037L4.84797 0.684037C4.84797 0.684037 4.28997 0.700037 4.08497 0.946037C3.90297 1.16404 4.06997 1.61404 4.06997 1.61404C4.06997 1.61404 6.97897 8.49504 10.273 11.961C13.293 15.143 16.725 14.932 16.725 14.932H18.28C18.28 14.932 18.749 14.878 18.989 14.62C19.213 14.38 19.203 13.929 19.203 13.929C19.203 13.929 19.172 11.82 20.138 11.51Z" fill="white"/>
</g>
<defs>
<filter id="filter0_d" x="0" y="-0.000732422" width="34.0083" height="22.9971" filterUnits="userSpaceOnUse" color-interpolation-filters="sRGB">
<feFlood flood-opacity="0" result="BackgroundImageFix"/>
<feColorMatrix in="SourceAlpha" type="matrix" values="0 0 0 0 0 0 0 0 0 0 0 0 0 0 0 0 0 0 127 0"/>
<feOffset dy="4"/>
<feGaussianBlur stdDeviation="2"/>
<feColorMatrix type="matrix" values="0 0 0 0 0 0 0 0 0 0 0 0 0 0 0 0 0 0 0.25 0"/>
<feBlend mode="normal" in2="BackgroundImageFix" result="effect1_dropShadow"/>
<feBlend mode="normal" in="SourceGraphic" in2="effect1_dropShadow" result="shape"/>
</filter>
</defs>
</svg>
